<mxfile host="app.diagrams.net" modified="2023-08-03T03:23:46.998Z" agent="Mozilla/5.0 (Macintosh; Intel Mac OS X 10_15_7) AppleWebKit/605.1.15 (KHTML, like Gecko) Version/16.5 Safari/605.1.15" version="21.6.6" etag="fe6-P9tNvEU4yBzEDlDP" type="github">
  <diagram name="Page-1" id="lvIJPakYY8ff7qoYnFZU">
    <mxGraphModel>
      <root>
        <mxCell id="0" />
        <mxCell id="1" parent="0" />
      </root>
    </mxGraphModel>
  </diagram>
</mxfile>
